<?xml version="1.0" encoding="utf-8"?>
<!-- Generator: Adobe Illustrator 27.0.0, SVG Export Plug-In . SVG Version: 6.00 Build 0)  -->
<svg version="1.1" id="Layer_1" xmlns="http://www.w3.org/2000/svg" xmlns:xlink="http://www.w3.org/1999/xlink" x="0px" y="0px"
	 viewBox="0 0 100 100" style="enable-background:new 0 0 100 100;" xml:space="preserve">
<style type="text/css">
	.st0{fill:#32D951;}
	.st1{fill:#FFFFFF;}
	.st2{clip-path:url(#SVGID_00000132806590718231719820000004712227002398973353_);}
	.st3{clip-path:url(#SVGID_00000176029664752848892940000013426687120219940283_);fill:#FFFFFF;}
</style>
<rect class="st0" width="100" height="100"/>
<path class="st0" d="M88.13,47.81c0.12,21.41-17.42,39.79-39.9,39.64C26.1,87.31,8.55,69.01,8.89,47.19
	c0.33-21.22,17.71-39.04,39.7-39C70.79,8.23,88.24,26.44,88.13,47.81z M25.84,70.66c0.21-0.05,0.39-0.1,0.58-0.15
	c3.66-0.96,7.31-1.92,10.96-2.88c0.25-0.07,0.47-0.06,0.72,0.07c2.24,1.18,4.61,1.95,7.12,2.33c2.78,0.42,5.54,0.34,8.29-0.28
	c5.11-1.15,9.36-3.75,12.65-7.81c4.38-5.42,5.93-11.62,4.74-18.46c-0.81-4.64-2.94-8.65-6.32-11.94c-5.47-5.32-12.04-7.4-19.57-6.29
	c-5.15,0.76-9.52,3.15-13.02,6.98c-4.6,5.03-6.56,11-5.91,17.8c0.29,3,1.18,5.81,2.64,8.45c0.19,0.34,0.21,0.62,0.11,0.98
	c-0.99,3.57-1.96,7.13-2.94,10.7C25.85,70.31,25.75,70.46,25.84,70.66z"/>
<path class="st0" d="M31.25,65.21c0.11-0.41,0.21-0.8,0.32-1.2c0.47-1.72,0.93-3.43,1.42-5.14c0.11-0.37,0.07-0.65-0.14-0.98
	c-1.4-2.16-2.34-4.5-2.77-7.04c-0.67-3.96-0.2-7.78,1.59-11.37c2.72-5.47,7.09-9,13.07-10.24c6.45-1.34,12.16,0.35,16.96,4.89
	c3.02,2.86,4.85,6.39,5.49,10.49c0.75,4.81-0.18,9.31-2.9,13.37c-2.88,4.32-6.89,7.03-11.97,8.08c-4.01,0.82-7.9,0.34-11.63-1.37
	c-0.71-0.33-1.39-0.7-2.05-1.11c-0.2-0.13-0.38-0.15-0.62-0.09c-2.15,0.57-4.3,1.13-6.45,1.69C31.47,65.21,31.38,65.25,31.25,65.21z
	 M36.78,42.17c-0.01,1.16,0.38,2.61,1.01,3.94c0.41,0.86,0.94,1.66,1.45,2.46c1.3,2.05,2.82,3.92,4.6,5.58
	c2.59,2.41,5.7,3.85,9.04,4.83c1.95,0.57,3.75,0.15,5.44-0.97c1.45-0.96,1.86-2.38,1.93-3.98c0.01-0.28-0.11-0.49-0.34-0.64
	c-0.11-0.07-0.22-0.14-0.33-0.2c-1.2-0.64-2.41-1.29-3.62-1.93c-0.35-0.19-0.7-0.37-1.08-0.5c-0.49-0.16-0.77-0.07-1.09,0.34
	c-0.53,0.68-1.12,1.3-1.68,1.95c-0.43,0.5-0.76,0.73-1.64,0.37c-0.44-0.18-0.84-0.44-1.26-0.67c-2.71-1.5-4.72-3.67-6.23-6.35
	c-0.27-0.47-0.22-0.87,0.07-1.28c0.26-0.37,0.57-0.69,0.87-1.01c0.27-0.29,0.53-0.59,0.72-0.94c0.2-0.36,0.23-0.71,0.08-1.1
	c-0.56-1.49-1.11-2.98-1.66-4.47c-0.15-0.41-0.42-0.7-0.8-0.91c-0.93-0.49-2.41-0.33-3.19,0.37C37.56,38.44,36.8,40.14,36.78,42.17z
	"/>
<g>
	<path class="st1" d="M15.74,84.48c-0.13-0.31,0.01-0.53,0.07-0.75c1.47-5.39,2.94-10.77,4.43-16.15c0.15-0.54,0.11-0.98-0.17-1.48
		c-2.19-3.97-3.55-8.22-3.98-12.74c-0.99-10.26,1.97-19.26,8.92-26.86c5.29-5.78,11.88-9.38,19.65-10.53
		c11.36-1.69,21.27,1.46,29.53,9.49c5.1,4.96,8.32,11.01,9.54,18.01c1.8,10.33-0.55,19.69-7.15,27.86
		c-4.96,6.14-11.38,10.06-19.09,11.79c-4.14,0.93-8.31,1.06-12.5,0.42c-3.78-0.57-7.36-1.73-10.74-3.51
		c-0.38-0.2-0.7-0.21-1.09-0.11c-5.51,1.45-11.03,2.9-16.55,4.34C16.33,84.33,16.05,84.4,15.74,84.48z M23.9,76.24
		c0.2,0.06,0.33,0,0.46-0.04c3.25-0.85,6.49-1.69,9.74-2.55c0.36-0.1,0.63-0.05,0.94,0.14c1,0.62,2.03,1.19,3.1,1.68
		c5.63,2.59,11.5,3.32,17.55,2.07c7.66-1.58,13.72-5.67,18.07-12.19c4.09-6.13,5.51-12.92,4.37-20.18
		c-0.97-6.19-3.73-11.52-8.29-15.84c-7.24-6.85-15.86-9.4-25.59-7.38c-9.03,1.87-15.62,7.19-19.73,15.45
		c-2.7,5.42-3.41,11.19-2.4,17.16c0.65,3.84,2.06,7.38,4.18,10.63c0.32,0.49,0.37,0.91,0.21,1.47c-0.74,2.58-1.43,5.17-2.14,7.76
		C24.22,75.03,24.06,75.63,23.9,76.24z"/>
</g>
<g>
	<g>
		<defs>
			<rect id="SVGID_1_" x="-5.19" y="17.31" width="108.52" height="61.04"/>
		</defs>
		<clipPath id="SVGID_00000047043314138308414360000011344803958772058008_">
			<use xlink:href="#SVGID_1_"  style="overflow:visible;"/>
		</clipPath>
		<g style="clip-path:url(#SVGID_00000047043314138308414360000011344803958772058008_);">
			<defs>
				<rect id="SVGID_00000011731427021486589050000011007698758141573509_" x="-5.19" y="17.31" width="108.52" height="61.04"/>
			</defs>
			<clipPath id="SVGID_00000150798460459738046570000016975296610756219559_">
				<use xlink:href="#SVGID_00000011731427021486589050000011007698758141573509_"  style="overflow:visible;"/>
			</clipPath>
			<path style="clip-path:url(#SVGID_00000150798460459738046570000016975296610756219559_);fill:#FFFFFF;" d="M65.65,52.58h2.23
				c0.38,0,0.64,0.4,0.48,0.75l-0.94,2.01c-0.17,0.37-0.54,0.61-0.95,0.61H51.67c-0.38,0-0.64-0.4-0.48-0.75l0.94-2.01
				c0.17-0.37,0.54-0.61,0.95-0.61h2.66c0.41,0,0.78-0.24,0.95-0.61l4.58-9.83c0.16-0.35-0.09-0.75-0.48-0.75h-2.29
				c-0.38,0-0.64-0.4-0.48-0.75l0.94-2.01c0.17-0.37,0.54-0.61,0.95-0.61h8.38c1.54,0,2.55,1.6,1.9,2.99l-5.04,10.81
				C65.01,52.18,65.26,52.58,65.65,52.58"/>
			<path style="clip-path:url(#SVGID_00000150798460459738046570000016975296610756219559_);fill:#FFFFFF;" d="M34.19,41.23
				l-3.21,6.88c-0.49,1.04,0.28,2.24,1.43,2.24h10.13c0.38,0,0.64,0.4,0.48,0.75l-1.19,2.56c-0.17,0.37-0.54,0.61-0.95,0.61h-8.58
				c-0.38,0-0.64-0.4-0.48-0.75l0.33-0.71c0.08-0.17-0.05-0.37-0.24-0.37H29.3c-0.2,0-0.39,0.12-0.48,0.3l-0.89,1.9
				c-0.65,1.39,0.37,2.99,1.9,2.99h16.87c1.02,0,1.95-0.59,2.38-1.52l6.25-13.4c0.65-1.39-0.37-2.99-1.9-2.99H36.57
				C35.55,39.71,34.62,40.3,34.19,41.23 M44.26,46.99h-3.52c-0.38,0-0.64-0.4-0.48-0.75l1.19-2.56c0.17-0.37,0.54-0.61,0.95-0.61
				h3.52c0.38,0,0.64,0.4,0.48,0.75l-1.19,2.56C45.04,46.75,44.67,46.99,44.26,46.99"/>
		</g>
	</g>
</g>
</svg>
