<svg xmlns="http://www.w3.org/2000/svg" width="34.393" height="32.2" viewBox="0 0 34.393 32.2">
  <path id="Union_17" data-name="Union 17" d="M20.27,25.1a6.282,6.282,0,0,1,.847-3.268A6.932,6.932,0,0,1,27.29,18.2a8.178,8.178,0,0,1,1.695.242A6.821,6.821,0,0,1,33.947,26.8a6.944,6.944,0,0,1-2.663,3.994A8.528,8.528,0,0,1,27.169,32h0A6.9,6.9,0,0,1,20.27,25.1Zm1.21-.121a5.6,5.6,0,0,0,1.937,4.236,5.5,5.5,0,0,0,3.752,1.331,6.087,6.087,0,0,0,3.268-.968,5.632,5.632,0,0,0,1.331-7.867A5.136,5.136,0,0,0,28.5,19.533a4.965,4.965,0,0,0-1.331-.121A5.658,5.658,0,0,0,21.48,24.98ZM7.545,30.017l-3.752-4.6a.5.5,0,0,1-.1-.629.392.392,0,0,1,.095-.145l3.752-4.6c.242-.242.605-.363.847-.121a.726.726,0,0,1,.242.63v1.395h6.9a.572.572,0,0,1,.605.605c.121.242-.242.605-.605.605H8.209a.532.532,0,0,1-.18.031.572.572,0,0,1-.605-.605v-.479L5.037,25.03l2.386,2.925v-.4a.572.572,0,0,1,.605-.605h7.5a.572.572,0,0,1,.605.605c.121.363-.242.605-.605.605h-6.9v1.3a.524.524,0,0,1-.241.68.223.223,0,0,0-.054.007.6.6,0,0,1-.111.045.478.478,0,0,1-.2.069A.629.629,0,0,1,7.545,30.017Zm20.082-2.274-2.155-2.02c-.135-.135-.135-.135-.135-.269a.43.43,0,0,1,.4-.4h.808a1.107,1.107,0,0,0,.808-.539h-1.75a.4.4,0,1,1,0-.808h1.75a1.013,1.013,0,0,0-.943-.673h-.808a.29.29,0,0,1-.269-.269c-.135-.269.135-.4.269-.4h3.1a.29.29,0,0,1,.269.269c.135.269-.135.4-.269.4H27.9a1.028,1.028,0,0,1,.269.673H28.7c.269,0,.4.135.539.4a.43.43,0,0,1-.4.4H28.3a1.886,1.886,0,0,1-1.616,1.212L28.166,27.2a.41.41,0,0,1,0,.539.409.409,0,0,1-.539,0ZM10.53,25.66a.605.605,0,0,1,0-1.21h7.5a.572.572,0,0,1,.605.605c.121.363-.242.605-.605.605ZM6.9,16.1.524,12.438A.553.553,0,0,1,.291,12.3.63.63,0,0,1,0,11.862v-7.5c0-.242.121-.484.363-.484L6.9.121,6.93.106A.633.633,0,0,1,7.3,0a.572.572,0,0,1,.542.313l6.2,3.561a.649.649,0,0,1,.363.484v7.5c0,.242-.121.484-.363.484L7.5,16.1c0,.121-.121.121-.242.121A.445.445,0,0,1,6.9,16.1ZM2.055,11.912l5.207,2.975L13.193,11.5V4.72L7.9,1.7V7.713l3.63,2.09a.748.748,0,0,1,.242.847c-.121.242-.242.363-.484.363a.445.445,0,0,1-.363-.121L7.384,8.853ZM1.331,4.72v6.171L6.654,7.836a.6.6,0,0,1,.036-.091V1.658ZM26.32,12.709s0-.008,0-.012,0-.019,0-.029V11.217H19.434a.605.605,0,1,1,0-1.21h7.49c.025,0,.049,0,.073,0a.567.567,0,0,1,.547.6.389.389,0,0,1-.015.3v.1l2.448-3-2.448-3V5.5a.5.5,0,0,1,.011.059.385.385,0,0,1-.118.386.6.6,0,0,1-.484.269h-7.5a.572.572,0,0,1-.605-.605A.572.572,0,0,1,19.434,5h6.885V3.46a.566.566,0,0,1,.528-.6.523.523,0,0,1,.683.239l3.752,4.6a.519.519,0,0,1-.121.847.4.4,0,0,1-.133.09l-3.492,4.281a.478.478,0,0,1-.257.275.539.539,0,0,1-.355.123A.572.572,0,0,1,26.32,12.709ZM16.932,8.715a.605.605,0,0,1,0-1.21h7.5a.605.605,0,1,1,0,1.21Z" transform="translate(0.1 0.1)" fill="#5ad335" stroke="#5ad235" stroke-miterlimit="10" stroke-width="0.2"/>
</svg>
