<svg xmlns="http://www.w3.org/2000/svg" width="42.737" height="27.051" viewBox="0 0 42.737 27.051">
  <path id="Union_18" data-name="Union 18" d="M31.238,22.6H16.084v.133A4.188,4.188,0,0,1,7.71,22.6H4.121a1.332,1.332,0,0,1-1.329-1.329V19.806H.665a.665.665,0,1,1,0-1.329H7.178a.665.665,0,1,1,0,1.329H4.254v1.462H8.109a4.084,4.084,0,0,1,2.659-2.658,4.271,4.271,0,0,1,5.317,2.658H29.909V16.217a.665.665,0,0,1,1.329,0v5.051H31.5a4.084,4.084,0,0,1,2.658-2.658,4.271,4.271,0,0,1,5.317,2.658h1.728V18.344h-.8a2.1,2.1,0,0,1-2.127-2.127V14.755a.628.628,0,0,1,.665-.665h2.127a2.5,2.5,0,0,0-2.127-1.462H31.105v.8a.665.665,0,1,1-1.329,0V1.329H4.254v12.1a.628.628,0,0,1-.665.665.628.628,0,0,1-.665-.665V1.329A1.332,1.332,0,0,1,4.254,0H29.776a1.332,1.332,0,0,1,1.329,1.329V2.791h5.051a2.726,2.726,0,0,1,2.792,2.791v.665c0,.266-.266.665-.532.665L39.479,11.3a3.56,3.56,0,0,1,3.057,3.456v7.178a.628.628,0,0,1-.665.665h-2.26v.133a4.258,4.258,0,0,1-4.254,4.121A4.172,4.172,0,0,1,31.238,22.6Zm1.329,0a2.95,2.95,0,0,0,2.924,2.924A3.042,3.042,0,0,0,38.416,22.6a2.924,2.924,0,0,0-5.849,0Zm-23.4,0A2.95,2.95,0,0,0,12.1,25.522,3.042,3.042,0,0,0,15.021,22.6a2.924,2.924,0,0,0-5.849,0Zm30.44-6.38a.858.858,0,0,0,.8.8h.665v-1.6H39.612ZM31.105,11.3h6.912L36.954,6.912H31.105Zm0-5.716h6.513a1.475,1.475,0,0,0-1.462-1.462H31.105Zm2.99,17.039a1.332,1.332,0,0,1,1.329-1.329c.8,0,1.462.532,1.329,1.329a1.332,1.332,0,0,1-1.329,1.329A1.43,1.43,0,0,1,34.095,22.622Zm-23.448,0a1.332,1.332,0,0,1,1.329-1.329c.8,0,1.462.532,1.329,1.329a1.43,1.43,0,0,1-1.329,1.329A1.43,1.43,0,0,1,10.646,22.622Zm7.133-2.83a.712.712,0,0,1-.665-.665.608.608,0,0,1,.532-.665h9.97a.628.628,0,0,1,.665.665c0,.266-.266.665-.532.665ZM2.147,16.829a.665.665,0,1,1,0-1.329h8.507a.712.712,0,0,1,.665.665.628.628,0,0,1-.665.665Zm13.7-2.916-3.589-3.589a.658.658,0,0,1,.93-.93l3.057,3.057,5.982-5.982a.642.642,0,0,1,.93,0,.808.808,0,0,1,0,1.063l-6.38,6.381a.643.643,0,0,1-.93,0Z" transform="translate(0.1 0.1)" fill="#5ad235" stroke="#5ad235" stroke-miterlimit="10" stroke-width="0.2"/>
</svg>
