<svg xmlns="http://www.w3.org/2000/svg" width="34.189" height="30.885" viewBox="0 0 34.189 30.885">
  <g id="Group_66134" data-name="Group 66134" transform="translate(0.1 0.1)">
    <path id="Path_73636" data-name="Path 73636" d="M30.4,23.442H8.412a3.446,3.446,0,0,0-3.446,3.419h0L4.825,46.215H.536A.558.558,0,0,0,0,46.772c0,.005,0,.01,0,.015H0V49.45a4.667,4.667,0,0,0,4.39,4.644H4.4v.033H22.91v-.036c.138.005.221.036.315.036h.013a4.652,4.652,0,0,0,4.625-4.652c0-.009,0-.017,0-.026h0V32.523h5.589a.564.564,0,0,0,.536-.563c0-.006,0-.011,0-.017h0V27.052a3.61,3.61,0,0,0-3.585-3.61ZM4.644,53.026h0A3.567,3.567,0,0,1,1.1,49.459v-.01h0V47.315H18.576v2.142a4.644,4.644,0,0,0,1.36,3.29h0a2,2,0,0,1,.288.276l0,0ZM26.763,49.45c0,.007,0,.014,0,.022a3.554,3.554,0,0,1-3.524,3.554h-.015a3.577,3.577,0,0,1-3.55-3.576v-.009h0V46.784a.57.57,0,0,0-.549-.57H5.926l.141-19.348a2.347,2.347,0,0,1,2.346-2.322H27.8a3.741,3.741,0,0,0-1.041,2.527V49.45Zm6.123-22.382v4.355H27.864V27.072a2.549,2.549,0,0,1,2.519-2.529H30.4a2.509,2.509,0,0,1,2.484,2.509v.013h0Z" transform="translate(0 -23.442)" fill="#5ad235" stroke="#5ad235" stroke-width="0.2"/>
    <path id="Path_73637" data-name="Path 73637" d="M76.891,58.022l2.838,1.94a.541.541,0,0,0,.617,0h0l2.828-1.94a4.272,4.272,0,0,0,1.709-3.253V50.822a.538.538,0,0,0-.291-.478h0l-4.321-2.125a.533.533,0,0,0-.241-.057.541.541,0,0,0-.244.058h0l-4.313,2.12a.538.538,0,0,0-.293.479c0,.005,0,.011,0,.016h0v3.931a4.272,4.272,0,0,0,1.7,3.252Zm-.609-6.848,3.749-1.85,3.749,1.855v3.583a3.17,3.17,0,0,1-1.222,2.346l-.007.005-2.527,1.729-2.517-1.728a3.169,3.169,0,0,1-1.226-2.344v-3.6Z" transform="translate(-63.966 -44.474)" fill="#5ad235" stroke="#5ad235" stroke-width="0.2"/>
    <path id="Path_73638" data-name="Path 73638" d="M94.23,80.147a.548.548,0,0,0,.39.165h0a.549.549,0,0,0,.389-.163l2.189-2.19a.551.551,0,1,0-.779-.779l-1.8,1.8-.719-.726a.551.551,0,1,0-.782.776Z" transform="translate(-79.097 -69.028)" fill="#5ad235" stroke="#5ad235" stroke-width="0.2"/>
    <path id="Path_73639" data-name="Path 73639" d="M75.114,137.85H61.9a.551.551,0,1,0,0,1.1H75.114a.551.551,0,0,0,0-1.1" transform="translate(-52.204 -120.787)" fill="#5ad235" stroke="#5ad235" stroke-width="0.2"/>
    <path id="Path_73640" data-name="Path 73640" d="M75.114,154.919H61.9a.551.551,0,1,0,0,1.1H75.114a.551.551,0,0,0,0-1.1" transform="translate(-52.204 -135.311)" fill="#5ad235" stroke="#5ad235" stroke-width="0.2"/>
  </g>
</svg>
