<svg xmlns="http://www.w3.org/2000/svg" width="35.909" height="34" viewBox="0 0 35.909 34">
  <path id="Union_20" data-name="Union 20" d="M19.574,33.308l-.082-.032c-.1-.034-.208-.07-.316-.108a4.443,4.443,0,0,0-1.221-.324,5.022,5.022,0,0,0-1.548.437l-.031.013A7.028,7.028,0,0,1,13.582,34a3.508,3.508,0,0,1-1.166-.116l-.033-.011A5.465,5.465,0,0,1,9.425,31.1L9.4,31.06c-.095-.133-.21-.312-.321-.485a4.644,4.644,0,0,0-.49-.689,2.908,2.908,0,0,0-1.325-.5l-.2-.049a5.577,5.577,0,0,1-3.645-1.9,5.864,5.864,0,0,1-.755-4.014l0-.029v-.014c0-.134.01-.293.021-.462a2.7,2.7,0,0,0-.06-1.1L2.6,21.773l-.032-.047c-.055-.083-.152-.209-.318-.426-.153-.2-.32-.418-.446-.594l-.036-.045A5.62,5.62,0,0,1,0,17a5.483,5.483,0,0,1,1.756-3.642,7.925,7.925,0,0,0,.818-1.084l.034-.058a2.466,2.466,0,0,0,.077-1.168c-.01-.165-.02-.32-.02-.431l-.005-.132a6.1,6.1,0,0,1,.752-3.917A5.526,5.526,0,0,1,6.6,4.8c.155-.043.305-.085.447-.128l.028-.006a2.451,2.451,0,0,0,1.563-.607c.085-.114.213-.3.36-.526s.282-.423.4-.591l.015-.022A6.357,6.357,0,0,1,12.331.148a.18.18,0,0,1,.043-.011c.127-.015.257-.034.388-.053A6.416,6.416,0,0,1,13.582,0a7.623,7.623,0,0,1,2.753.692l.082.032c.1.035.208.071.315.108a4.448,4.448,0,0,0,1.223.325A5.011,5.011,0,0,0,19.5.719l.031-.013A7.03,7.03,0,0,1,22.328,0a2.64,2.64,0,0,1,1.136.154l.063.023A5.544,5.544,0,0,1,26.484,2.95l.026.04c.1.133.21.312.321.485a4.628,4.628,0,0,0,.491.689,2.9,2.9,0,0,0,1.325.5l.2.049a5.578,5.578,0,0,1,3.645,1.9,5.863,5.863,0,0,1,.755,4.014l0,.029v.015c0,.135-.011.3-.021.462a2.706,2.706,0,0,0,.06,1.1l.021.053.032.047c.055.082.151.208.317.425.149.194.318.415.447.594l.036.045a5.621,5.621,0,0,1,1.773,3.661A5.491,5.491,0,0,1,34.148,20.7l-.048.057c-.12.168-.3.388-.448.565a2.8,2.8,0,0,0-.35.465,2.468,2.468,0,0,0-.076,1.166c.01.166.02.32.02.431l0,.132a6.1,6.1,0,0,1-.752,3.917,5.527,5.527,0,0,1-3.19,1.771c-.165.046-.315.088-.458.132l-.022.005a3.311,3.311,0,0,0-1.506.546l-.05.058c-.085.113-.211.3-.358.522l-.014.021c-.131.2-.272.407-.39.572l-.015.023a6.358,6.358,0,0,1-2.916,2.768.167.167,0,0,1-.043.011c-.127.016-.258.034-.388.053a6.455,6.455,0,0,1-.82.084A7.63,7.63,0,0,1,19.574,33.308Zm.7-1.6.009,0a4.587,4.587,0,0,0,2.149.658,1.157,1.157,0,0,0,.625-.143l.026-.012a4.347,4.347,0,0,0,1.978-2.072A5.494,5.494,0,0,1,26.4,28.46l.029-.021a4.742,4.742,0,0,1,2.026-.751,3.864,3.864,0,0,0,2.612-1.228,4.2,4.2,0,0,0,.349-2.817c-.007-.112-.014-.215-.021-.317a5.312,5.312,0,0,1,.089-1.916,6.151,6.151,0,0,1,1.043-1.489c.075-.089.149-.176.221-.263l.113-.14a3.461,3.461,0,0,0,1.12-2.511c0-.008,0-.015,0-.023a4.377,4.377,0,0,0-1.245-2.376l-.186-.221a4.9,4.9,0,0,1-1.2-1.662.21.21,0,0,1-.008-.026,6.169,6.169,0,0,1-.077-2.223,4.338,4.338,0,0,0-.339-2.827A3.415,3.415,0,0,0,28.78,6.536c-.142-.037-.285-.074-.426-.113l-.024-.006a7,7,0,0,1-2.068-.769l-.017-.012A6.5,6.5,0,0,1,24.9,3.947l-.012-.019a5.587,5.587,0,0,0-1.867-2,.187.187,0,0,1-.034-.021,1.137,1.137,0,0,0-.71-.179A4.748,4.748,0,0,0,20.59,2.2c-.137.056-.274.112-.408.164-.162.057-.316.115-.467.171a5.253,5.253,0,0,1-1.811.45,5.373,5.373,0,0,1-2.215-.594,4.609,4.609,0,0,0-2.158-.663,1.156,1.156,0,0,0-.625.144l-.026.012A4.345,4.345,0,0,0,10.9,3.956a5.569,5.569,0,0,1-1.366,1.7,4.743,4.743,0,0,1-2.031.754A3.865,3.865,0,0,0,4.894,7.639a4.2,4.2,0,0,0-.348,2.817c.007.112.014.215.021.317a5.307,5.307,0,0,1-.089,1.915,6.158,6.158,0,0,1-1.042,1.488c-.081.1-.153.18-.222.264l-.136.169A4.243,4.243,0,0,0,1.83,17.05a4.163,4.163,0,0,0,1.359,2.467l.173.194a4.876,4.876,0,0,1,1.209,1.682A5.263,5.263,0,0,1,4.7,23.622a4.337,4.337,0,0,0,.339,2.828A3.418,3.418,0,0,0,7.18,27.564c.142.036.284.073.426.113l.024.006a7,7,0,0,1,2.068.769l.017.012a6.5,6.5,0,0,1,1.344,1.689l.012.019a5.591,5.591,0,0,0,1.867,2,.2.2,0,0,1,.034.021,1.139,1.139,0,0,0,.711.179,4.748,4.748,0,0,0,1.687-.471c.137-.056.274-.113.409-.165.162-.057.316-.114.467-.171a5.254,5.254,0,0,1,1.81-.45A5.38,5.38,0,0,1,20.271,31.708Zm.445-8.431a5.46,5.46,0,0,1-.79-3.261c0-2.868.983-4.263,3.006-4.263a2.537,2.537,0,0,1,2.157.989,5.884,5.884,0,0,1,.849,3.274,5.207,5.207,0,0,1-.775,3.242,2.649,2.649,0,0,1-2.231,1.02A2.647,2.647,0,0,1,20.715,23.277Zm1.223-5.3a6.308,6.308,0,0,0-.274,2.037,6.622,6.622,0,0,0,.249,1.967.346.346,0,0,1,.014.058.944.944,0,0,0,1,.85,1.015,1.015,0,0,0,.754-.33,3.461,3.461,0,0,0,.513-2.545c0-.72,0-2.875-1.267-2.875A1.122,1.122,0,0,0,21.939,17.978Zm-7.9,6.1a.362.362,0,0,1-.319-.533l7.116-13.281a.361.361,0,0,1,.319-.191h.721a.362.362,0,0,1,.319.533L15.076,23.886a.361.361,0,0,1-.319.191ZM10.7,17.327a5.278,5.278,0,0,1-.775-3.242c0-2.868.983-4.263,3.006-4.263a2.647,2.647,0,0,1,2.206.989.418.418,0,0,1,.026.036,5.88,5.88,0,0,1,.824,3.237,5.206,5.206,0,0,1-.775,3.242l-.023.033a2.379,2.379,0,0,1-2.257.988A2.647,2.647,0,0,1,10.7,17.327ZM11.885,12.1a6.306,6.306,0,0,0-.274,2.037,6.3,6.3,0,0,0,.274,2.037l.007.018.008.017c.255.509.611.8.976.8,1.047,0,1.267-1.563,1.267-2.875,0-.711,0-2.875-1.266-2.875A1.122,1.122,0,0,0,11.885,12.1Z" fill="#5ad235"/>
</svg>
