<svg width="94" height="29" viewBox="0 0 94 29" fill="none" xmlns="http://www.w3.org/2000/svg">
<path d="M30.2218 10.5256L29.2972 12.2859C28.2786 11.7355 27.3378 11.4373 26.6327 11.4373C26.1467 11.4373 25.8019 11.6254 25.8019 12.0183C25.8019 13.1813 30.2533 12.6156 30.237 15.5701C30.237 17.3144 28.7175 18.2729 26.6797 18.2729C25.2692 18.2729 23.9058 17.8644 22.8867 17.0787L23.749 15.35C24.705 16.0257 25.8019 16.403 26.7424 16.403C27.2754 16.403 27.6669 16.2145 27.6669 15.8217C27.6669 14.5799 23.2941 15.2244 23.31 12.2543C23.31 10.51 24.7832 9.56706 26.7424 9.56706C27.965 9.56706 29.1872 9.91273 30.2218 10.5256Z" fill="#014751"/>
<path d="M39.7414 12.8212V18.1641H37.0456V13.5757C37.0456 12.5855 36.4655 11.9726 35.5569 11.9726C34.5693 11.9726 33.9421 12.6799 33.8328 13.6857V18.1641H31.1211V9.69389H33.8328V11.0769C34.4281 10.0868 35.4001 9.58421 36.6538 9.56825C38.5188 9.56825 39.7414 10.8412 39.7414 12.8212Z" fill="#014751"/>
<path d="M45.8522 15.2922V14.5377H44.144C43.3288 14.5377 42.9218 14.8206 42.9218 15.4491C42.9218 16.0623 43.3607 16.4549 44.1125 16.4549C44.9591 16.4549 45.6802 15.9836 45.8522 15.2922ZM48.5165 12.6366V18.1679H45.8681V17.1937C45.3198 17.9166 44.4261 18.2935 43.2821 18.2935C41.4797 18.2935 40.3828 17.1937 40.3828 15.6379C40.3828 14.0348 41.5268 13.0922 43.6269 13.0763H45.8522V12.9506C45.8522 12.1177 45.3039 11.6148 44.207 11.6148C43.5015 11.6148 42.5767 11.8661 41.6833 12.3221L40.9155 10.5306C42.2322 9.91774 43.423 9.57173 44.8335 9.57173C47.1533 9.57173 48.5012 10.7191 48.5165 12.6366Z" fill="#014751"/>
<path d="M56.367 13.8886C56.367 12.6 55.5989 11.6886 54.4705 11.6886C53.3739 11.6886 52.6059 12.6 52.6059 13.8886C52.6059 15.2088 53.3739 16.1042 54.4705 16.1042C55.5989 16.1042 56.367 15.1928 56.367 13.8886ZM59.0946 13.967C59.0946 16.5443 57.5588 18.257 55.1915 18.257C54.095 18.257 53.2012 17.8169 52.6059 17.0315V21.2115H49.8945V9.69272H52.6059V10.8085C53.2012 10.0384 54.0631 9.59833 55.1292 9.59833C57.5117 9.59833 59.0946 11.3426 59.0946 13.967Z" fill="#014751"/>
<path d="M73.976 13.0568V18.164H72.7538V13.3868C72.7538 11.9098 71.8916 11.0453 70.4651 11.0453C68.7569 11.0925 67.7697 12.3182 67.7697 14.0941V18.164H66.5316V13.3868C66.5316 11.9098 65.6852 11.0453 64.2432 11.0453C62.5506 11.0925 61.5315 12.3182 61.5315 14.0941V18.164H60.3242V9.88228H61.5315V11.7526C62.0802 10.4639 63.193 9.85104 64.6821 9.83542C66.2335 9.83542 67.2993 10.6368 67.6444 12.0038C68.1612 10.5427 69.3211 9.85104 70.9044 9.83542C72.832 9.83542 73.976 11.0609 73.976 13.0568Z" fill="#014751"/>
<path d="M76.0593 9.88231H77.266V18.1641H76.0593V9.88231ZM77.4543 7.50916C77.4543 7.99642 77.1095 8.35771 76.655 8.35771C76.2006 8.35771 75.8555 7.99642 75.8555 7.50916C75.8555 7.02224 76.2006 6.66061 76.655 6.66061C77.1095 6.66061 77.4543 7.02224 77.4543 7.50916Z" fill="#014751"/>
<path d="M87.1795 13.0568V18.164H85.9573V13.3868C85.9573 11.9254 85.0795 11.0608 83.6219 11.0608C81.9919 11.0768 80.9888 12.145 80.8479 13.7165V18.164H79.625V9.88225H80.8479V11.7053C81.4277 10.4479 82.5402 9.85101 84.0449 9.83539C86.0196 9.83539 87.1795 11.0608 87.1795 13.0568Z" fill="#014751"/>
<path d="M93.5354 17.6026C92.9556 17.9955 92.3287 18.2155 91.6704 18.2315C90.4637 18.2315 89.5703 17.5086 89.5703 15.8739V11.1439H88.3789V10.1538H89.5703V7.96944H90.7766V10.1538L93.3945 10.1382V11.1439H90.7766V15.6539C90.7766 16.66 91.1688 17.0369 91.8742 17.0369C92.2972 17.0369 92.7361 16.8953 93.1906 16.6125L93.5354 17.6026Z" fill="#014751"/>
<path d="M3.41546 10.0387C2.54171 7.617 3.43104 5.66965 4.07213 4.68969C4.93504 3.37052 6.29239 2.53046 7.38017 2.21671C7.38288 3.8442 7.38051 6.5491 7.3795 7.35045C6.70217 7.54943 4.72473 8.25774 3.41546 10.0387ZM7.70359 0.68939C6.07836 1.22181 4.49342 2.39158 3.24478 3.97696C1.66729 5.88968 0.772207 8.21054 0.656723 10.6978L0.655707 10.7365C0.64995 10.8665 0.646563 10.9969 0.645547 11.1256L0.644531 11.2271C0.644531 11.3558 0.647241 11.4839 0.651982 11.6119L0.652998 11.6533C0.825377 16.3263 3.9055 20.4834 8.31894 21.9978L8.71619 22.134V14.0156L8.44831 13.9864C8.00873 13.9385 7.57118 13.841 7.14819 13.6974C5.84841 13.2546 4.73184 12.3806 3.98509 11.2271C4.73455 10.0686 5.8562 9.19355 7.16241 8.75179C7.57998 8.61053 8.01212 8.51512 8.44831 8.46792L8.71619 8.43872V0.320293L8.31894 0.456455C8.11202 0.527082 7.89799 0.608236 7.70359 0.68939Z" fill="#AFE137"/>
<path d="M11.7572 26.2903C11.7545 24.6628 11.7572 21.9579 11.7576 21.1566C12.4352 20.9576 14.413 20.2493 15.7213 18.4687C16.5964 20.89 15.7064 22.837 15.0653 23.8177C14.2034 25.1362 12.8453 25.9762 11.7572 26.2903ZM18.4861 16.8958L18.4841 16.8534C18.3127 12.1811 15.2326 8.02394 10.8188 6.50918L10.4219 6.37302V14.4918L10.6898 14.5207C11.1293 14.5685 11.5666 14.6656 11.9892 14.8093C13.289 15.2524 14.4056 16.1261 15.1523 17.2799C14.4028 18.4388 13.2812 19.3138 11.9753 19.7552C11.5577 19.8965 11.1256 19.9919 10.6898 20.0394L10.4219 20.0683V28.1874L10.8188 28.0509C11.0338 27.9765 11.2458 27.8961 11.4341 27.818C13.0597 27.2849 14.6446 26.1148 15.8926 24.5297C17.4704 22.6173 18.3652 20.2965 18.481 17.8065L18.4813 17.7702C18.4874 17.6395 18.4912 17.5098 18.4922 17.3641L18.4932 17.2799C18.4932 17.1515 18.4905 17.0232 18.4861 16.8958Z" fill="#AFE137"/>
</svg>
