<!-- Generated by IcoMoon.io -->
<svg version="1.1" xmlns="http://www.w3.org/2000/svg" width="1024" height="1024" viewBox="0 0 1024 1024">
<title></title>
<g id="icomoon-ignore">
</g>
<path fill="#000" d="M609.76 313.543c0 53.83-43.62 97.76-97.76 97.76s-97.76-43.62-97.76-97.76c0-53.83 43.62-97.76 97.76-97.76s97.76 43.62 97.76 97.76z"></path>
<path fill="#000" d="M650.595 297.456c-6.807-70.536-66.514-125.911-138.595-125.911s-131.791 55.375-138.595 125.911c-24.439 24.439-39.908 60.017 17.326 94.048 11.446 6.807 25.986-1.547 25.986-14.849-12.066-18.252-19.182-39.908-19.182-63.42 0-63.111 51.354-114.465 114.465-114.465s114.465 51.354 114.465 114.465c0 23.512-7.116 45.168-19.182 63.111 0 9.59 7.734 16.705 16.396 17.014-3.403 8.663-7.734 17.014-13.922 24.13-5.877 6.807-12.993 12.375-21.347 16.396-5.568-4.641-13.611-7.425-22.894-7.425-1.238 0-2.165 0-3.403 0-14.849 1.238-26.606 9.899-26.606 20.727 0 11.446 13.302 21.038 30.010 21.038 2.474 0 4.641-0.309 7.116-0.618 11.137-1.856 20.109-8.043 22.274-16.087 11.446-5.259 21.038-12.375 29.080-21.656 11.755-13.611 18.561-30.319 22.274-47.333 41.455-30.936 26.915-62.491 4.33-85.076v0z"></path>
<path fill="#000" d="M713.397 613.627v-63.729c0-21.347-10.21-41.764-27.842-54.139-14.54-9.899-66.823-18.252-99.307-18.252l-51.974 126.22-8.663-72.701 19.182-29.080c3.712-6.498 2.785-14.54-2.785-20.109-3.094-3.403-7.734-4.95-12.375-4.95h-35.887c-4.641 0-9.281 1.547-12.375 4.95-5.568 5.568-6.498 13.611-2.785 20.109l19.182 29.080-8.663 73.010-51.045-124.364c-28.462 0-79.816 5.877-94.048 13.611-21.038 11.446-33.722 34.031-33.722 57.852v62.182l403.103 0.309z"></path>
<path fill="#000" d="M1024 175.566v-55.996c0-19.182-15.778-34.649-34.649-34.649h-0.929c0 0-0.309 0-0.309 0h-952.226c0 0-0.309 0-0.309 0h-0.929c-18.87 0-34.649 15.778-34.649 34.649v55.996c0.309 0 0.618 0.309 1.238 0.309v514.783h-1.238v95.904c0 18.87 15.778 34.34 34.649 34.34h338.754v76.104h-47.642c-23.512 0-42.073 18.87-43.312 42.073h459.408c-1.238-23.512-19.8-42.073-43.312-42.073h-48.262v-76.104h339.065c18.87 0 34.649-15.469 34.649-34.34v-95.904h-1.238v-514.783c0.618 0 0.929-0.309 1.238-0.309zM548.814 752.222c0 20.109-16.396 36.814-36.814 36.814s-36.814-16.705-36.814-36.814c0-20.418 16.396-36.814 36.814-36.814s36.814 16.396 36.814 36.814zM969.552 631.571h-915.101v-495.295h915.101v495.295z"></path>
</svg>
