<svg xmlns="http://www.w3.org/2000/svg" width="27.003" height="34.513" viewBox="0 0 27.003 34.513">
  <path id="Union_19" data-name="Union 19" d="M12.786,33.913l-1.744-.7A18.3,18.3,0,0,1,0,16.361V7.526a.639.639,0,0,1,.349-.581L12.786.087a.519.519,0,0,1,.581,0L26.154,6.829h0a.639.639,0,0,1,.349.581v8.718A18.374,18.374,0,0,1,15.227,33.1l-1.976.814a.354.354,0,0,1-.465,0Zm-1.278-1.976,1.511.7,1.744-.7A17.293,17.293,0,0,0,25.224,16.128l-.116-8.369L13.019,1.25,1.279,7.759v8.486A16.919,16.919,0,0,0,11.508,31.937Zm.157-11.763L8.6,17.113a.548.548,0,0,1,0-.793.548.548,0,0,1,.793,0L12,18.927l5.1-5.1a.548.548,0,0,1,.793,0,.69.69,0,0,1,0,.907l-5.44,5.44a.548.548,0,0,1-.793,0Z" transform="translate(0.25 0.263)" fill="#5ad235" stroke="#5ad235" stroke-linecap="round" stroke-linejoin="round" stroke-miterlimit="10" stroke-width="0.5"/>
</svg>
