<svg xmlns="http://www.w3.org/2000/svg" width="31.847" height="31.768" xmlns:v="https://vecta.io/nano"><defs><clipPath id="A"><path fill="#5ad235" stroke="#5ad235" stroke-width=".1" d="M0 0h31.847v31.768H0z"/></clipPath></defs><g clip-path="url(#A)" fill="#5ad235"><path d="M26.422 20.178l-3.917-1.953c-.266-.152-.594-.147-.855.013s-.413.451-.397.758v2.15l-.007 2.134c-.01.311.146.605.41.77s.596.177.872.03l3.9-1.953c.386-.171.635-.555.634-.977s-.252-.805-.639-.974m-.317 1.247l-3.9 1.949c-.046.023-.1.037-.163.063v-4.562l.168.066 3.9 1.949c.112.056.21.122.212.262s-.1.217-.217.276"/><path d="M22.116 24.283h0a.98.98 0 0 1-.705-.3.95.95 0 0 1-.265-.7l.011-1.479v-.65q0-.36 0-.72 0-.715 0-1.431a.93.93 0 0 1 .924-.976c.165.001.327.041.473.116l1.584.791 2.333 1.162c.422.186.694.603.695 1.063s-.27.879-.69 1.067l-.538.266-3.36 1.686a.99.99 0 0 1-.462.105zm-.04-6.063a.73.73 0 0 0-.724.776q0 .715 0 1.43 0 .36 0 .72v.648l-.011 1.49c-.01.207.066.409.21.558a.78.78 0 0 0 .561.241h0a.79.79 0 0 0 .365-.091l3.363-1.687.538-.266c.352-.155.579-.503.577-.887s-.23-.731-.582-.884l-2.333-1.163-1.583-.79c-.118-.061-.248-.093-.381-.095zm-.137 5.362v-4.854l.136.053.065.024c.038.013.075.028.111.045l2.194 1.1 1.708.853c.16.047.269.194.268.36s-.112.312-.273.357l-1.69.844-2.212 1.1a.96.96 0 0 1-.112.045l-.06.022zm.2-4.564v4.275l.018-.008 2.212-1.1 1.69-.844c.124-.062.163-.107.162-.185s-.039-.116-.157-.175l-1.708-.853-2.194-1.1z"/><path d="M30.076 14.778H17.7a1.62 1.62 0 0 0-1.78 1.777q0 1.087 0 2.173l-.089.071-.512-.381-1.184-.839c-.119-.085-.305-.17-.325-.28-.097-.251.008-.534.245-.661a5.69 5.69 0 0 0 2.862-4.24c.032-.208.1-.269.305-.292.909-.099 1.65-.773 1.835-1.669a2.13 2.13 0 0 0-1.015-2.267l-.263-.152c.254-.387.329-.865.207-1.312s-.43-.82-.846-1.024A.43.43 0 0 1 17 5.37l-.008-2.08C17 1.993 16.076.877 14.8.642L13.116.3c-.886-.257-1.814-.336-2.73-.233L7.265.71a2.6 2.6 0 0 0-1.956 2.527v2.116c.02.165-.074.322-.228.383a1.47 1.47 0 0 0-.825 1.4c.038.309.107.613.207.907l-.1.057a2.13 2.13 0 0 0-1.135 2.339 2.1 2.1 0 0 0 1.873 1.666c.215.027.243.133.265.3.111 1.067.553 2.072 1.265 2.874A11.15 11.15 0 0 0 8.3 16.677c.268.2.179.42.172.634 0 .088-.156.209-.266.249a2.97 2.97 0 0 0-1.252.867 1 1 0 0 1-.425.289l-3.04.953A4.75 4.75 0 0 0 0 24.408q0 3.263 0 6.527c0 .7.129.833.834.833H26.3h.287c.854-.024 1.535-.721 1.54-1.575.019-.856-.652-1.569-1.508-1.6-.188-.01-.376 0-.582 0v-1.066h.408 3.658c.474.041.941-.13 1.278-.466s.507-.803.467-1.277q0-4.626 0-9.253c.044-.48-.129-.954-.472-1.294s-.819-.508-1.298-.459m-13.067-5.8a1.03 1.03 0 0 1 .917 1.551 1.03 1.03 0 0 1-.917.504zM5.295 11.017a1 1 0 0 1-1.052-1.009c-.003-.278.107-.545.306-.738s.469-.297.746-.287zm8.519 7.654c.726.069 1.18.978 1 1.977h-1zM6.379 3.2a1.54 1.54 0 0 1 1.186-1.478q1.554-.344 3.122-.621c.306-.054.62-.054.926 0l3.087.613a1.5 1.5 0 0 1 1.2 1.351c.043.771.01 1.547.01 2.435-3.101-.858-6.377-.858-9.478 0a1.7 1.7 0 0 1-.055-.252V3.207M5.345 7c.063-.176.2-.315.375-.38l5.4-.829 3.756.55 1.557.245c.389.064.589.3.538.619a.6.6 0 0 1-.75.531l-2.538-.456-2.122-.327c-1.124-.018-2.245.117-3.332.4l-2.114.383c-.5.084-.918-.309-.766-.734m1.031 4.652V8.763l3.959-.7c.795-.055 1.595-.013 2.38.125l3.209.573-.009 2.86a5.48 5.48 0 0 1-.2 1.338c-.667 2.266-2.894 3.702-5.234 3.373S6.4 14.011 6.383 11.648m6.373 6.837c.099.979-.133 1.962-.659 2.793-.349.578-.615 1.205-.947 1.867l-1.557-3.127a.32.32 0 0 1-.035-.136v-2.661c1.046.28 2.147.278 3.192-.006l.007 1.272m-4.286.167v1.993h-.993c-.275-.822.165-1.713.986-1.993M4.21 30.678H1.091v-2.072H4.21zm3.29-1.445a.66.66 0 0 1-.27-.661c.023-.185.023-.371 0-.556-.052-.337.115-.506.447-.619v.785c0 .373.142.528.5.534q.791.014 1.582 0c.365-.006.5-.16.509-.53v-.787c.264.051.456.282.457.551.116.651-.15 1.312-.685 1.7-.115.126-.182.289-.189.459a3.71 3.71 0 0 0-.011.563H8.1c-.001-.01-.001-.021 0-.031a1.34 1.34 0 0 0-.6-1.411m6.244.942v-.644c.032-.34-.085-.676-.32-.923-.126-.233-.149-.509-.062-.759.178-.536.384-1.063.617-1.577.021-.094.104-.16.2-.16s.179.066.2.16l.626 1.573a.8.8 0 0 1-.181.937c-.123.132-.194.304-.2.485l-.01 1.409h-.854a3.35 3.35 0 0 1-.02-.5m3.249.5H15.48l.01-1.27c0-.095.138-.178.188-.278.103-.168.178-.351.223-.542.062-.536-.034-1.078-.277-1.56-.213-.449-.383-.919-.556-1.385a.56.56 0 0 0-.6-.4c-1.168.009-.968-.088-1.387.926l-.384.949c-.236.475-.323 1.011-.249 1.536a1.84 1.84 0 0 0 .247.5c.084.132.143.279.176.432a9.48 9.48 0 0 1 0 1.084l-2.164.009c-.061-.321.076-.647.347-.828.408-.273.614-.762.524-1.244-.039-.367.019-.745-.02-1.112a.77.77 0 0 0-.258-.479c-.369-.287-.769-.535-1.165-.788-.135-.129-.336-.158-.502-.073s-.259.266-.233.45v1.224h-.862v-1.105c0-.222-.016-.434-.241-.557s-.411 0-.592.121l-1.065.726c-.143.121-.236.291-.259.477-.029.527-.029 1.056 0 1.583a1 1 0 0 0 .2.461 1.29 1.29 0 0 0 .328.332.8.8 0 0 1 .326.811H5.316v-5.782H4.25V27.5H1.095a2.71 2.71 0 0 1-.026-.271v-3.011c-.041-1.434.809-2.743 2.135-3.29 1-.439 2.073-.7 3.167-1.061v2.188c0 .431.155.65.471.68s.517-.149.592-.57a.5.5 0 0 1 .533-.474.48.48 0 0 1 .507.458c.031.269.118.54.4.557.259-.032.511-.104.747-.214l.933 1.869c.125.255.256.5.585.5s.457-.252.582-.507l.989-1.982c.063.073.1.159.162.181.167.094.356.142.548.138.143-.037.256-.246.35-.4s.1-.357.214-.472a.51.51 0 0 1 .855.3c.154.686.532.818 1.075.321v1.948q0 .735 0 1.47c-.023.613.306 1.186.847 1.475.089.053.208.158.209.241l.009 3.1m2.722.012h-1.623v-3.132h3.651v1.03a2 2 0 0 0-1.619.454c-.426.434-.58 1.068-.4 1.649m6.7-1.045c.422 0 .654.207.646.547s-.227.51-.639.511h-2.542-2.542c-.406 0-.625-.19-.628-.522s.22-.534.621-.535q2.542-.007 5.083 0m-3.569-1.055v-1.039l.251-.021h1.842v1.032l-.292.027h-1.8m7.209-2.128H17.716c-.565 0-.725-.159-.726-.72q0-4.589 0-9.178c0-.559.161-.716.728-.716h12.333c.565 0 .726.159.726.719q0 4.589 0 9.178c0 .557-.164.717-.729.717"/><path d="M26.451 31.818H.834c-.735 0-.884-.149-.884-.883v-1.788q0-2.37 0-4.739a5.02 5.02 0 0 1 .931-3c.651-.858 1.56-1.485 2.594-1.788l.95-.3 2.09-.658a.94.94 0 0 0 .4-.274 3.01 3.01 0 0 1 1.272-.881c.1-.039.231-.149.233-.2l.01-.125c.052-.174-.012-.363-.161-.468a11.29 11.29 0 0 1-1.671-1.4 5.17 5.17 0 0 1-1.278-2.9c-.02-.156-.038-.233-.221-.255-.945-.085-1.723-.778-1.916-1.706-.202-.969.275-1.953 1.162-2.393l.064-.037-.072-.254c-.07-.202-.113-.413-.128-.627-.035-.611.301-1.183.851-1.45.138-.052.221-.192.2-.338V3.237A2.65 2.65 0 0 1 7.254.661L9.569.175q.4-.078.807-.158a3.6 3.6 0 0 1 .711-.067 8.35 8.35 0 0 1 1.658.224l.38.076 1.119.227.566.117a2.73 2.73 0 0 1 2.228 2.7v.935l.006 1.145a.39.39 0 0 0 .122.272c.417.208.727.581.856 1.028s.064.928-.178 1.326l.057.033.166.1a2.17 2.17 0 0 1 1.041 2.319c-.19.917-.948 1.607-1.879 1.711-.187.021-.233.066-.262.25a5.75 5.75 0 0 1-2.887 4.275c-.279.163-.266.363-.221.609.011.061.114.125.2.182l.1.066.655.465q.265.187.529.374l.356.263.127.1.04-.032v-.669q0-.74 0-1.481c-.051-.499.125-.995.48-1.349a1.67 1.67 0 0 1 1.35-.478h12.38a1.67 1.67 0 0 1 1.332.473c.352.347.53.834.488 1.327v9.253a1.67 1.67 0 0 1-.487 1.306c-.345.343-.823.518-1.309.479q-1.276 0-2.553 0h-1.463v.964h.323.212a1.62 1.62 0 0 1 1.555 1.649c-.01.879-.709 1.595-1.588 1.624-.045.005-.086.005-.135.005zm-.155-.1h.155.13a1.54 1.54 0 0 0 1.488-1.521 1.54 1.54 0 0 0-1.456-1.552h-.207-.373-.05v-1.168h2.669 1.447a1.56 1.56 0 0 0 1.701-1.693v-9.253a1.56 1.56 0 0 0-1.72-1.7H17.7c-.472-.049-.94.117-1.276.452s-.502.803-.454 1.275q0 .74 0 1.48v.717l-.138.11-.032-.025-.158-.118-.354-.262q-.263-.188-.528-.374l-.656-.465a.93.93 0 0 0-.1-.062c-.114-.071-.231-.145-.25-.249-.1-.271.015-.575.269-.713a5.65 5.65 0 0 0 2.838-4.2.33.33 0 0 1 .349-.334c.887-.099 1.611-.758 1.793-1.632s-.218-1.767-.993-2.212l-.165-.1-.137-.079.027-.04a1.57 1.57 0 0 0-.621-2.272.48.48 0 0 1-.167-.354l-.006-1.147v-.933c.007-1.274-.899-2.37-2.151-2.603l-.566-.116-1.118-.226-.381-.077A8.29 8.29 0 0 0 11.087.05a3.5 3.5 0 0 0-.687.066q-.4.08-.807.158L7.282.759a2.55 2.55 0 0 0-1.918 2.48v2.115c.02.184-.084.358-.255.428a1.42 1.42 0 0 0-.8 1.359 2.32 2.32 0 0 0 .124.6l.082.3.009.036-.05.023-.081.047a2.08 2.08 0 0 0-1.11 2.286c.186.886.929 1.546 1.83 1.626.248.031.285.167.308.342a5.07 5.07 0 0 0 1.252 2.847c.506.515 1.061.98 1.657 1.388a.52.52 0 0 1 .2.559c0 .041-.008.079-.009.117 0 .124-.193.256-.3.294-.478.172-.902.466-1.231.852a1.05 1.05 0 0 1-.447.3l-2.091.658-.949.3C1.41 20.3-.015 22.236.05 24.408q0 2.37 0 4.739v1.788c0 .673.11.783.784.783zm-3.896-.967h-1.066c-.428 0-.675-.21-.677-.572-.005-.148.049-.292.151-.4.142-.127.329-.192.52-.181h2.554 2.53a.75.75 0 0 1 .55.189.55.55 0 0 1 .146.409c-.009.359-.253.558-.689.56q-.9 0-1.8 0H22.4zm1.481-1.063h-2.554a.62.62 0 0 0-.449.151.45.45 0 0 0-.122.334c0 .388.316.471.578.472h1.786 2.236 1.061c.383 0 .581-.157.589-.462a.45.45 0 0 0-.117-.337c-.132-.115-.304-.172-.478-.159zm-4.109 1.048h-1.744V27.5h3.751v1.131h-.051-.24a1.7 1.7 0 0 0-1.342.442c-.415.421-.564 1.036-.386 1.6zm-1.646-.1h1.521A1.69 1.69 0 0 1 20.073 29c.383-.351.897-.523 1.414-.472h.191V27.6h-3.55zm-13.866.092H1.041v-2.172H4.26zm-3.119-.1H4.16v-1.972H1.141zm15.9.1h-1.61v-.217l.011-1.1a.33.33 0 0 1 .111-.192.54.54 0 0 0 .083-.107l.055-.106c.078-.129.134-.271.164-.419a2.69 2.69 0 0 0-.273-1.533 17.57 17.57 0 0 1-.533-1.323l-.024-.066a.51.51 0 0 0-.545-.371h-.313c-.685 0-.685 0-.908.569l-.13.325-.131.34c-.073.209-.158.414-.255.613a2.57 2.57 0 0 0-.244 1.507.8.8 0 0 0 .14.308 1.82 1.82 0 0 1 .1.179l.053.1a.91.91 0 0 1 .128.347 9.5 9.5 0 0 1 0 1.09l-.008.054h-.041-2.209v-.045c-.063-.339.082-.683.368-.875a1.17 1.17 0 0 0 .5-1.2 4.3 4.3 0 0 1-.01-.564c.008-.183.005-.366-.01-.548a.72.72 0 0 0-.239-.445c-.328-.255-.687-.484-1.035-.7l-.126-.08a.57.57 0 0 0-.3-.1c-.209 0-.345.168-.355.438l-.005.833v.39.05h-.962v-.38-.779c0-.216-.015-.4-.215-.513-.051-.029-.109-.045-.168-.046a.7.7 0 0 0-.364.159l-.009.006-.321.21-.741.513a.7.7 0 0 0-.241.441c-.029.525-.029 1.052 0 1.577a.96.96 0 0 0 .191.435 1.24 1.24 0 0 0 .315.319.85.85 0 0 1 .347.857v.045H5.266v-5.783H4.3v2.61H1.05v-.045c0-.028-.006-.056-.01-.083-.01-.064-.015-.128-.017-.193v-.856l.008-2.157c-.04-1.453.822-2.78 2.165-3.335a18.74 18.74 0 0 1 2.157-.747l1.014-.315.066-.022v.756 1.5c0 .4.136.6.426.63s.468-.138.538-.529c.021-.298.275-.526.574-.515h.009a.53.53 0 0 1 .556.5c.039.338.153.5.358.513a1.17 1.17 0 0 0 .466-.117l.264-.095.04-.012.019.038.24.477.694 1.392c.137.278.255.475.536.475s.4-.2.542-.479l.7-1.4.292-.582.034-.067.049.057c.022.026.042.054.059.078.029.041.056.079.083.089l.116.046a1 1 0 0 0 .34.1.25.25 0 0 0 .062-.007c.108-.028.209-.194.29-.328l.029-.048a.89.89 0 0 0 .081-.2c.024-.103.072-.199.139-.281.097-.101.231-.159.371-.159a.6.6 0 0 1 .568.479c.059.265.186.581.452.581.208-.028.4-.13.54-.286l.084-.077v2.523q0 .5 0 1.009a1.55 1.55 0 0 0 .816 1.431c.08.047.232.167.234.283l.01 2.457q0 .321 0 .645zm-1.508-.1h1.408q0-.3 0-.6l-.01-2.455c0-.048-.087-.141-.185-.2a1.66 1.66 0 0 1-.872-1.518q0-.5 0-1.008v-2.3a.87.87 0 0 1-.524.239c-.183 0-.427-.114-.549-.659a.5.5 0 0 0-.47-.4c-.113 0-.222.047-.3.129-.056.071-.095.153-.115.241a1.01 1.01 0 0 1-.091.222l-.029.048c-.1.157-.2.335-.351.373a.35.35 0 0 1-.087.011 1.06 1.06 0 0 1-.378-.105l-.112-.045c-.055-.028-.099-.071-.129-.125l-.006-.009-.256.51-.7 1.4c-.122.25-.261.533-.627.535s-.514-.294-.63-.53l-.694-1.391-.22-.439-.217.08a1.26 1.26 0 0 1-.508.123c-.384-.023-.434-.458-.451-.6a.43.43 0 0 0-.458-.414h-.01a.45.45 0 0 0-.475.433c-.078.439-.295.645-.646.612s-.515-.278-.516-.729v-1.5-.618l-.951.295a18.7 18.7 0 0 0-2.146.743 3.41 3.41 0 0 0-2.105 3.246l-.008 2.154v.856a1.44 1.44 0 0 0 .016.18l.005.041H4.2v-2.61h1.166v5.784h1.819c.047-.28-.074-.561-.308-.72a1.35 1.35 0 0 1-.341-.346c-.11-.141-.181-.309-.207-.486-.029-.529-.029-1.059 0-1.588a.8.8 0 0 1 .278-.513c.238-.189.5-.357.748-.519l.32-.209.009-.006a.78.78 0 0 1 .42-.176c.076.001.15.021.216.058a.59.59 0 0 1 .267.6v.778.277h.763v-.339l.005-.838c.012-.325.191-.535.455-.535a.67.67 0 0 1 .354.116l.126.08 1.043.71a.82.82 0 0 1 .277.513 4.33 4.33 0 0 1 .01.561 4.23 4.23 0 0 0 .01.551 1.28 1.28 0 0 1-.545 1.29.75.75 0 0 0-.33.737h2.072a9.21 9.21 0 0 0 0-1.04.84.84 0 0 0-.117-.308l-.055-.107a1.75 1.75 0 0 0-.1-.169.87.87 0 0 1-.155-.35 2.67 2.67 0 0 1 .255-1.564 5.62 5.62 0 0 0 .25-.6l.132-.344.129-.323c.24-.615.268-.633 1-.633h.313c.29-.027.558.157.638.437l.024.066.53 1.315a2.79 2.79 0 0 1 .282 1.588 1.4 1.4 0 0 1-.174.453l-.054.1a.6.6 0 0 1-.1.13c-.041.045-.083.091-.085.128l-.011 1.1zm-.873.1h-.939l-.007-.041a3.36 3.36 0 0 1-.021-.509v-.2l.005-.448a1.13 1.13 0 0 0-.308-.887.99.99 0 0 1-.072-.806 12.45 12.45 0 0 1 .495-1.291q.062-.145.123-.291c.032-.108.132-.183.245-.183s.212.074.245.183l.108.253.52 1.324c.159.338.078.74-.2.99a.7.7 0 0 0-.185.449l-.012 1.173q0 .117 0 .234zm-.854-.1h.753q0-.091 0-.183l.012-1.178a.8.8 0 0 1 .219-.52.75.75 0 0 0 .167-.883c-.146-.447-.334-.889-.517-1.316l-.108-.253a.24.24 0 0 0-.152-.122.24.24 0 0 0-.153.123q-.061.146-.124.291a12.37 12.37 0 0 0-.491 1.28.9.9 0 0 0 .052.712 1.22 1.22 0 0 1 .332.96 3.78 3.78 0 0 0 0 .439v.2a4.22 4.22 0 0 0 .004.447zm-3.914.1H8.044v-.059a.15.15 0 0 1 0-.03c.113-.532-.12-1.077-.583-1.362a.7.7 0 0 1-.291-.707 2.24 2.24 0 0 0 0-.543c-.066-.43.222-.586.48-.674l.066-.023v.07q0 .126 0 .249v.535c0 .352.123.479.455.485h1.58c.335-.006.455-.131.459-.481v-.529-.257-.071l.067.024c.283.058.487.305.49.594a1.76 1.76 0 0 1-.705 1.748.66.66 0 0 0-.169.425 3.4 3.4 0 0 0-.012.519zm-1.737-.1h1.632a3.37 3.37 0 0 1 .013-.519.78.78 0 0 1 .209-.493 1.67 1.67 0 0 0 .665-1.659c.004-.223-.143-.421-.357-.483v.185.53c-.005.4-.172.573-.558.579H8.175c-.383-.007-.548-.181-.553-.584v-.536q0-.088 0-.177c-.287.114-.389.274-.348.54.023.189.023.379 0 .568a.6.6 0 0 0 .25.615c.482.304.731.87.628 1.431zm15.6-1.987h-.965V27.5h.046l.085-.009a1.63 1.63 0 0 1 .171-.012h1.892V28.6h-.045l-.1.011a1.7 1.7 0 0 1-.2.016zm-.859-.1h1.751c.062-.001.124-.006.185-.015l.058-.007v-.937h-1.799a1.42 1.42 0 0 0-.16.012h-.041zm4.349-2.028h-9.53c-.594 0-.775-.18-.776-.77q0-4.589 0-9.178c0-.587.182-.766.778-.766h12.334c.595 0 .776.18.776.769q0 4.589 0 9.178c0 .588-.182.767-.779.767zm-3.356-.1h6.167c.539 0 .679-.137.679-.667q0-4.589 0-9.178c0-.532-.139-.669-.676-.669H17.718c-.539 0-.678.137-.678.666q0 4.589 0 9.178c0 .532.139.67.676.67h6.166zm-12.745-3.155l-.281-.564-1.32-2.653a.37.37 0 0 1-.04-.158v-2.2-.528l.063.016c1.038.278 2.13.276 3.167-.006l.063-.016v.065l-.007.42a6.84 6.84 0 0 0 .013.847 4.44 4.44 0 0 1-.666 2.823c-.238.394-.436.808-.646 1.248l-.3.616zM9.6 17.285v.4 2.2a.28.28 0 0 0 .03.114l1.32 2.653.192.385.253-.524.651-1.256a4.34 4.34 0 0 0 .652-2.762 6.89 6.89 0 0 1-.014-.859l.007-.353c-1.013.265-2.078.267-3.092.006zm5.258 3.415h-1.094v-2.084l.055.005a1.04 1.04 0 0 1 .735.435 2.08 2.08 0 0 1 .312 1.6zm-.995-.1h.911a1.97 1.97 0 0 0-.3-1.482c-.145-.205-.364-.344-.611-.389zm-5.35.1H7.438l-.009-.039a1.93 1.93 0 0 1 .253-1.516c.174-.277.454-.471.774-.538l.058-.009zm-.995-.1h.895v-1.886c-.268.076-.499.248-.649.484a1.82 1.82 0 0 0-.245 1.402zm3.629-4.168a4.8 4.8 0 0 1-.656-.045c-2.371-.326-4.144-2.342-4.166-4.735V9.679q0-.456 0-.918v-.044l.041-.007 1.2-.229 2.767-.467a5.5 5.5 0 0 1 .62-.033 13.28 13.28 0 0 1 1.772.158l2.229.388.982.186.041.007v.042.832l-.013 2.029a5.5 5.5 0 0 1-.2 1.351c-.288 1.005-.9 1.886-1.741 2.506a4.85 4.85 0 0 1-2.875.949zM6.425 8.8q0 .442 0 .876v1.972c.016 2.338 1.742 4.312 4.058 4.638s4.52-1.094 5.18-3.338a5.4 5.4 0 0 0 .2-1.326l.013-2.026v-.791l-.942-.179-2.224-.387c-.582-.092-1.17-.144-1.759-.157a5.4 5.4 0 0 0-.609.032c-.919.1-1.813.279-2.759.465L6.425 8.8zm10.534 2.282V8.926h.05c.295-.002.579.116.786.326a1.08 1.08 0 0 1-.785 1.829zm.1-2.054v1.952a.98.98 0 0 0 .664-1.658.99.99 0 0 0-.665-.294zM5.221 11.07a1.05 1.05 0 0 1-1.029-1.062c-.004-.286.107-.561.308-.764a1.05 1.05 0 0 1 .8-.311h.048v2.128h-.046q-.042.009-.081.009zm.024-2.037c-.252.002-.493.103-.671.282s-.284.433-.281.692a.95.95 0 0 0 .952.962zM16.36 7.8a.92.92 0 0 1-.152-.013l-1.332-.239-1.206-.217-.37-.068-1.744-.262a4.83 4.83 0 0 0-.484-.024 10.56 10.56 0 0 0-2.045.27l-.789.149-1.044.189-1.07.194a.87.87 0 0 1-.144.012c-.239.005-.466-.107-.608-.3A.55.55 0 0 1 5.3 6.98a.67.67 0 0 1 .414-.412l4.292-.668 1.1-.166h.007l1.1.16 2.666.391 1.557.245c.414.068.635.327.579.676a.64.64 0 0 1-.655.594zm-5.293-.919l.494.024 1.751.263.374.065 1.207.217 1.33.238a.82.82 0 0 0 .136.012c.289.008.534-.212.557-.5.047-.293-.138-.5-.5-.562l-1.556-.245L12.2 6l-1.083-.158L10.021 6l-4.293.663a.59.59 0 0 0-.336.347c-.053.142-.031.302.058.425.124.165.32.259.526.253a.77.77 0 0 0 .124-.007l1.068-.193 1.046-.19L9 7.149c.679-.158 1.371-.249 2.068-.272zm4.895-1.311l-.062-.02a18.4 18.4 0 0 0-4.764-.65 17.8 17.8 0 0 0-4.691.639l-.051.014-.011-.051-.031-.129c-.013-.043-.022-.088-.024-.133q0-.243 0-.486V3.197a1.6 1.6 0 0 1 1.226-1.524l3.124-.622a2.75 2.75 0 0 1 .944 0l3.089.613c.682.135 1.19.707 1.243 1.4l.016 1.639-.006.8zm-4.826-.77a18.48 18.48 0 0 1 4.727.631l.006-.735-.016-1.632c-.054-.645-.529-1.176-1.164-1.3l-3.085-.612a2.65 2.65 0 0 0-.909 0l-3.12.621A1.5 1.5 0 0 0 6.429 3.2v1.554q0 .243 0 .486a.5.5 0 0 0 .021.109l.02.081a17.9 17.9 0 0 1 4.666-.63zm-1.051 5.255a1.061 1.061 0 1 0-1.128 1c.282.017.56-.078.772-.266a1.06 1.06 0 0 0 .356-.734"/><path d="M9.02 11.108a.63.63 0 0 1-.068 0 1.1 1.1 0 1 1 .9-1.832 1.08 1.08 0 0 1 .281.784 1.1 1.1 0 0 1-1.113 1.048zm.011-2.107A1 1 0 0 0 8.999 11a1 1 0 0 0 1.032-.948.98.98 0 0 0-.256-.711c-.176-.2-.424-.321-.69-.338zm4.268 2.057c.578-.022 1.03-.506 1.013-1.084s-.496-1.035-1.074-1.023-1.039.487-1.033 1.065a1.06 1.06 0 0 0 .33.749c.206.196.481.301.764.293"/><path d="M13.272 11.109a1.111 1.111 0 0 1 .014-2.222 1.111 1.111 0 1 1 .014 2.222zm-.008-2.108h-.024c-.554.016-.991.478-.975 1.032s.478.991 1.032.975c.554-.009.996-.466.987-1.02s-.466-.996-1.02-.987zm-.394 4.552l-.667-.754c-.616.503-1.5.507-2.121.009l-.67.763a2.52 2.52 0 0 0 3.458-.018"/><path d="M11.18 14.298h0c-.668.014-1.314-.234-1.8-.692l-.033-.033.73-.832.037.025a1.86 1.86 0 0 0 1.041.362c.372-.01.731-.14 1.023-.37l.037-.027.725.82-.027.033c-.444.483-1.078.744-1.733.714zm-1.7-.73a2.46 2.46 0 0 0 1.7.63h0c.608.022 1.197-.212 1.623-.645l-.608-.687a1.81 1.81 0 0 1-1.044.363 1.93 1.93 0 0 1-1.061-.355z"/></g></svg>